<?xml version="1.0" encoding="UTF-8" standalone="no"?>
<!-- Created with Inkscape (http://www.inkscape.org/) -->

<svg
   width="32"
   height="32"
   viewBox="0 0 32 32"
   version="1.1"
   id="svg5"
   xml:space="preserve"
   inkscape:version="1.2.1 (8a69933317, 2022-10-28, custom)"
   sodipodi:docname="Clock.svg"
   inkscape:export-filename="../d25ce59b/Clock.png"
   inkscape:export-xdpi="96"
   inkscape:export-ydpi="96"
   xmlns:inkscape="http://www.inkscape.org/namespaces/inkscape"
   xmlns:sodipodi="http://sodipodi.sourceforge.net/DTD/sodipodi-0.dtd"
   xmlns="http://www.w3.org/2000/svg"
   xmlns:svg="http://www.w3.org/2000/svg"><sodipodi:namedview
     id="namedview7"
     pagecolor="#505050"
     bordercolor="#eeeeee"
     borderopacity="1"
     inkscape:showpageshadow="0"
     inkscape:pageopacity="0"
     inkscape:pagecheckerboard="0"
     inkscape:deskcolor="#505050"
     inkscape:document-units="px"
     showgrid="true"
     showguides="true"
     inkscape:zoom="14.237792"
     inkscape:cx="21.702803"
     inkscape:cy="15.311363"
     inkscape:window-width="1920"
     inkscape:window-height="1043"
     inkscape:window-x="1920"
     inkscape:window-y="0"
     inkscape:window-maximized="1"
     inkscape:current-layer="layer1"><inkscape:grid
       type="xygrid"
       id="grid19649" /></sodipodi:namedview><defs
     id="defs2" /><g
     inkscape:label="Calque 1"
     inkscape:groupmode="layer"
     id="layer1"><path
       d="M 14.5,7.5 C 14.5,6.66875 15.16875,6 16,6 c 0.83125,0 1.5,0.66875 1.5,1.5 v 7.7 l 5.33125,3.55 c 0.6875,0.4625 0.875,1.39375 0.3625,2.08125 -0.40625,0.6875 -1.3375,0.875 -2.025,0.3625 l -6,-4 C 14.75,16.96875 14.5,16.5 14.5,15.94375 Z M 16,0 C 24.8375,0 32,7.1625 32,16 32,24.8375 24.8375,32 16,32 7.1625,32 0,24.8375 0,16 0,7.1625 7.1625,0 16,0 Z M 3,16 C 3,23.18125 8.81875,29 16,29 23.18125,29 29,23.18125 29,16 29,8.81875 23.18125,3 16,3 8.81875,3 3,8.81875 3,16 Z"
       id="path21794"
       style="stroke-width:1" /></g></svg>
