<?xml version="1.0" encoding="UTF-8" standalone="no"?>
<!-- Created with Inkscape (http://www.inkscape.org/) -->

<svg
   width="512"
   height="484"
   viewBox="0 0 135.46666 128.05833"
   version="1.1"
   id="svg1424"
   inkscape:version="1.2.2 (b0a8486541, 2022-12-01, custom)"
   sodipodi:docname="Logo.svg"
   inkscape:export-filename="../80405009/Logo.png"
   inkscape:export-xdpi="48"
   inkscape:export-ydpi="48"
   xmlns:inkscape="http://www.inkscape.org/namespaces/inkscape"
   xmlns:sodipodi="http://sodipodi.sourceforge.net/DTD/sodipodi-0.dtd"
   xmlns="http://www.w3.org/2000/svg"
   xmlns:svg="http://www.w3.org/2000/svg">
  <sodipodi:namedview
     id="namedview1426"
     pagecolor="#ffffff"
     bordercolor="#666666"
     borderopacity="1.0"
     inkscape:pageshadow="2"
     inkscape:pageopacity="0.0"
     inkscape:pagecheckerboard="0"
     inkscape:document-units="px"
     showgrid="false"
     units="px"
     inkscape:zoom="1.3361472"
     inkscape:cx="218.91301"
     inkscape:cy="389.55289"
     inkscape:window-width="1920"
     inkscape:window-height="1016"
     inkscape:window-x="0"
     inkscape:window-y="27"
     inkscape:window-maximized="1"
     inkscape:current-layer="layer1"
     inkscape:showpageshadow="0"
     inkscape:deskcolor="#d1d1d1" />
  <defs
     id="defs1421" />
  <g
     inkscape:label="Calque 1"
     inkscape:groupmode="layer"
     id="layer1">
    <path
       d="M 13.76021,53.618377 H 0 V 1.0324861 h 13.76021 z"
       style="fill:#000000;fill-opacity:1;fill-rule:nonzero;stroke:none;stroke-width:3.29981"
       id="path422"
       inkscape:connector-curvature="0" />
    <path
       d="m 32.92092,1.0331591 8.87982,32.4041889 h 0.14872 V 1.0331591 H 54.81874 V 53.619022 H 39.72868 L 30.5552,21.142239 H 30.40648 V 53.619022 H 17.53388 V 1.0331591 Z"
       style="fill:#000000;fill-opacity:1;fill-rule:nonzero;stroke:none;stroke-width:3.29981"
       id="path426"
       inkscape:connector-curvature="0" />
    <path
       d="m 79.68235,14.951468 c 0,-1.570712 -0.32691,-2.910436 -0.96683,-4.012574 -0.64017,-1.1087413 -1.62683,-1.6565083 -2.95664,-1.6565083 -1.48161,0 -2.56724,0.478471 -3.25361,1.4354173 -0.69628,0.95695 -1.03615,2.022791 -1.03615,3.204121 0,1.715903 0.55435,3.082028 1.66308,4.088474 1.10878,1.00644 2.5013,1.874293 4.17761,2.610152 1.67958,0.73916 3.478,1.484916 5.40508,2.247175 1.92049,0.765557 3.72218,1.755502 5.39849,2.986332 1.67631,1.227532 3.07211,2.83454 4.18089,4.82103 1.10873,1.989787 1.66307,4.580143 1.66307,7.771066 0,5.599785 -1.60041,9.661859 -4.80781,12.189517 -3.2074,2.534261 -7.84367,3.794788 -13.90875,3.794788 -2.86094,0 -5.38857,-0.237582 -7.58625,-0.699562 -2.19109,-0.46857 -4.04558,-1.277027 -5.54698,-2.431961 -1.50472,-1.151637 -2.65306,-2.662953 -3.43844,-4.53395 -0.78865,-1.864392 -1.18132,-4.170963 -1.18132,-6.919712 v -1.844596 h 13.31475 v 1.25723 c 0,2.260374 0.41904,3.840986 1.25394,4.748433 0.84146,0.91405 1.92381,1.366125 3.25694,1.366125 1.43208,0 2.52435,-0.494971 3.29317,-1.475015 0.76228,-0.980045 1.14835,-2.181181 1.14835,-3.609999 0,-1.712606 -0.53456,-3.078726 -1.59381,-4.081874 -1.06253,-1.009743 -2.39238,-1.870992 -3.99278,-2.583752 -1.60368,-0.706161 -3.34271,-1.435421 -5.21371,-2.17128 -1.88088,-0.735859 -3.6199,-1.692805 -5.22031,-2.870838 -1.60368,-1.181334 -2.93353,-2.72565 -3.99278,-4.646141 -1.0658,-1.907293 -1.59381,-4.415154 -1.59381,-7.507078 0,-5.352303 1.43213,-9.4275763 4.29308,-12.2291236 C 65.30176,1.4024221 69.641,0 75.4619,0 c 6.01555,0 10.36803,1.2902301 13.05734,3.8673817 2.68935,2.577159 4.03239,6.6920313 4.03239,12.3380143 H 79.68235 Z"
       style="fill:#000000;fill-opacity:1;fill-rule:nonzero;stroke:none;stroke-width:3.29981"
       id="path438"
       inkscape:connector-curvature="0" />
    <path
       d="m 122.58981,1.0308211 12.8726,52.5891599 h -14.6446 l -1.40903,-9.206483 h -10.94879 l -1.40903,9.206483 H 92.62417 l 12.6548,-52.5891599 z m -8.72801,10.7541039 -3.77498,22.31335 h 7.69518 l -3.7783,-22.31335 z"
       style="fill:#000000;fill-opacity:1;fill-rule:nonzero;stroke:none;stroke-width:3.29981"
       id="path442"
       inkscape:connector-curvature="0" />
    <path
       d="m 126.1447,1.0078111 h 9.32196 V 40.496706 Z"
       style="fill:#000000;fill-opacity:1;fill-rule:nonzero;stroke:none;stroke-width:3.29981"
       id="path446"
       inkscape:connector-curvature="0" />
    <text
       xml:space="preserve"
       style="font-style:normal;font-variant:normal;font-weight:bold;font-stretch:normal;font-size:50.2055px;line-height:1.25;font-family:'Titillium Web';-inkscape-font-specification:'Titillium Web Bold';fill:#000000;fill-opacity:1;stroke:none;stroke-width:0.208033"
       x="-0.24511412"
       y="101.09206"
       id="text3134"><tspan
         sodipodi:role="line"
         id="tspan3132"
         style="font-style:normal;font-variant:normal;font-weight:bold;font-stretch:normal;font-size:50.2055px;font-family:'Titillium Web';-inkscape-font-specification:'Titillium Web Bold';stroke-width:0.208033"
         x="-0.24511412"
         y="101.09206">Tram</tspan></text>
    <rect
       style="fill:#000000;stroke:#000000;stroke-width:0.536791;stroke-linejoin:round"
       id="rect32823"
       width="134.92987"
       height="5.548625"
       x="0.26839563"
       y="112.94442" />
    <rect
       style="fill:#000000;stroke:#000000;stroke-width:0.464484;stroke-linejoin:round"
       id="rect32827"
       width="23.877182"
       height="8.002183"
       x="55.794739"
       y="119.82391" />
    <rect
       style="fill:#000000;stroke:#000000;stroke-width:0.464484;stroke-linejoin:round"
       id="rect32827-3"
       width="23.877182"
       height="8.002183"
       x="16.636408"
       y="119.82391" />
    <rect
       style="fill:#000000;stroke:#000000;stroke-width:0.464484;stroke-linejoin:round"
       id="rect32827-9"
       width="23.877182"
       height="8.002183"
       x="94.953072"
       y="119.82391" />
  </g>
</svg>
