<?xml version="1.0" encoding="UTF-8" standalone="no"?>
<!-- Created with Inkscape (http://www.inkscape.org/) -->

<svg
   width="32"
   height="32"
   viewBox="0 0 32 32"
   version="1.1"
   id="svg5"
   xml:space="preserve"
   inkscape:version="1.2.1 (8a69933317, 2022-10-28, custom)"
   sodipodi:docname="Pause.svg"
   inkscape:export-filename="../e981b30b/Pause.png"
   inkscape:export-xdpi="96"
   inkscape:export-ydpi="96"
   xmlns:inkscape="http://www.inkscape.org/namespaces/inkscape"
   xmlns:sodipodi="http://sodipodi.sourceforge.net/DTD/sodipodi-0.dtd"
   xmlns="http://www.w3.org/2000/svg"
   xmlns:svg="http://www.w3.org/2000/svg"><sodipodi:namedview
     id="namedview7"
     pagecolor="#505050"
     bordercolor="#eeeeee"
     borderopacity="1"
     inkscape:showpageshadow="0"
     inkscape:pageopacity="0"
     inkscape:pagecheckerboard="0"
     inkscape:deskcolor="#505050"
     inkscape:document-units="px"
     showgrid="true"
     showguides="true"
     inkscape:zoom="14.237792"
     inkscape:cx="21.702803"
     inkscape:cy="15.311363"
     inkscape:window-width="1920"
     inkscape:window-height="1043"
     inkscape:window-x="1920"
     inkscape:window-y="0"
     inkscape:window-maximized="1"
     inkscape:current-layer="layer1"><inkscape:grid
       type="xygrid"
       id="grid19649" /></sodipodi:namedview><defs
     id="defs2" /><g
     inkscape:label="Calque 1"
     inkscape:groupmode="layer"
     id="layer1"><path
       d="m 6.6666665,0 c -2.2083333,0 -4,1.7916667 -4,4 v 24 c 0,2.208333 1.7916667,4 4,4 h 2.6666666 c 2.2083339,0 4.0000009,-1.791667 4.0000009,-4 V 4 c 0,-2.2083333 -1.791667,-4 -4.0000009,-4 z M 22.666666,0 c -2.208332,0 -4,1.7916667 -4,4 v 24 c 0,2.208333 1.791668,4 4,4 h 2.666668 c 2.208332,0 4,-1.791667 4,-4 V 4 c 0,-2.2083333 -1.791668,-4 -4,-4 z"
       id="path21893"
       style="stroke-width:1" /></g></svg>
