<?xml version="1.0" encoding="UTF-8" standalone="no"?>
<!-- Created with Inkscape (http://www.inkscape.org/) -->

<svg
   width="32"
   height="32"
   viewBox="0 0 32 32"
   version="1.1"
   id="svg5"
   xml:space="preserve"
   inkscape:version="1.2.2 (b0a8486541, 2022-12-01, custom)"
   sodipodi:docname="Quit.svg"
   inkscape:export-filename="../193e5673/Quit.png"
   inkscape:export-xdpi="96"
   inkscape:export-ydpi="96"
   xmlns:inkscape="http://www.inkscape.org/namespaces/inkscape"
   xmlns:sodipodi="http://sodipodi.sourceforge.net/DTD/sodipodi-0.dtd"
   xmlns="http://www.w3.org/2000/svg"
   xmlns:svg="http://www.w3.org/2000/svg"><sodipodi:namedview
     id="namedview7"
     pagecolor="#505050"
     bordercolor="#eeeeee"
     borderopacity="1"
     inkscape:showpageshadow="0"
     inkscape:pageopacity="0"
     inkscape:pagecheckerboard="0"
     inkscape:deskcolor="#505050"
     inkscape:document-units="px"
     showgrid="true"
     showguides="true"
     inkscape:zoom="16.192521"
     inkscape:cx="4.1994696"
     inkscape:cy="16.272945"
     inkscape:window-width="1920"
     inkscape:window-height="1016"
     inkscape:window-x="0"
     inkscape:window-y="27"
     inkscape:window-maximized="1"
     inkscape:current-layer="layer1"><inkscape:grid
       type="xygrid"
       id="grid19649" /></sodipodi:namedview><defs
     id="defs2" /><g
     inkscape:label="Calque 1"
     inkscape:groupmode="layer"
     id="layer1"><path
       d="m 17.77778,3.55427 c 0,-0.55 -0.25,-1.06666 -0.68334,-1.4 C 16.66111,1.82094 16.1,1.69872 15.56667,1.83205 l -9.99445,2.5 C 4.38889,4.6265 3.55556,5.69316 3.55556,6.91539 V 26.665389 H 1.77778 C 0.79444,26.665389 0,27.459829 0,28.443159 c 0,0.98334 0.79444,1.77778 1.77778,1.77778 H 5.33333 16 17.77778 v -1.77778 z m -3.55556,12.444449 c 0,0.98333 -0.59444,1.77778 -1.33333,1.77778 -0.73889,0 -1.33333,-0.79445 -1.33333,-1.77778 0,-0.98333 0.59444,-1.77778 1.33333,-1.77778 0.73889,0 1.33333,0.79445 1.33333,1.77778 z M 19.55556,8.88761 h 5.33333 v 19.555549 1.77778 h 1.77778 3.55555 c 0.98334,0 1.77778,-0.79444 1.77778,-1.77778 0,-0.98333 -0.79444,-1.77777 -1.77778,-1.77777 H 28.44444 V 8.88761 c 0,-1.96111 -1.59444,-3.55556 -3.55555,-3.55556 h -5.33333 z"
       id="path1886"
       style="stroke-width:0.0555556" /></g></svg>
