<?xml version="1.0" encoding="UTF-8" standalone="no"?>
<!-- Created with Inkscape (http://www.inkscape.org/) -->

<svg
   width="32"
   height="32"
   viewBox="0 0 32 32"
   version="1.1"
   id="svg5"
   xml:space="preserve"
   inkscape:version="1.2.2 (b0a8486541, 2022-12-01, custom)"
   sodipodi:docname="Restart.svg"
   inkscape:export-filename="../ad0aedc/Restart.png"
   inkscape:export-xdpi="96"
   inkscape:export-ydpi="96"
   xmlns:inkscape="http://www.inkscape.org/namespaces/inkscape"
   xmlns:sodipodi="http://sodipodi.sourceforge.net/DTD/sodipodi-0.dtd"
   xmlns="http://www.w3.org/2000/svg"
   xmlns:svg="http://www.w3.org/2000/svg"><sodipodi:namedview
     id="namedview7"
     pagecolor="#505050"
     bordercolor="#eeeeee"
     borderopacity="1"
     inkscape:showpageshadow="0"
     inkscape:pageopacity="0"
     inkscape:pagecheckerboard="0"
     inkscape:deskcolor="#505050"
     inkscape:document-units="px"
     showgrid="true"
     showguides="true"
     inkscape:zoom="16.192521"
     inkscape:cx="5.4346078"
     inkscape:cy="16.025917"
     inkscape:window-width="1920"
     inkscape:window-height="1016"
     inkscape:window-x="0"
     inkscape:window-y="27"
     inkscape:window-maximized="1"
     inkscape:current-layer="layer1"><inkscape:grid
       type="xygrid"
       id="grid19649" /></sodipodi:namedview><defs
     id="defs2" /><g
     inkscape:label="Calque 1"
     inkscape:groupmode="layer"
     id="layer1"><path
       d="m 24.43489,9.3796637 h -3.46878 c -1.22062,0 -2.20678,0.9861603 -2.20678,2.2067803 0,1.22063 0.98616,2.20678 2.20678,2.20678 h 8.82711 c 1.22063,0 2.20678,-0.98615 2.20678,-2.20678 V 2.7593337 c 0,-1.22062 -0.98615,-2.20677995 -2.20678,-2.20677995 -1.22062,0 -2.20678,0.98615995 -2.20678,2.20677995 v 3.53085 l -1.21372,-1.21373 c -6.03416,-6.03415995 -15.81294,-6.03415995 -21.8471,0 -6.03416,6.0341603 -6.03416,15.8129403 0,21.8471003 6.03416,6.03415 15.81294,6.03415 21.8471,0 0.86202,-0.86203 0.86202,-2.26195 0,-3.12397 -0.86203,-0.86203 -2.26195,-0.86203 -3.12397,0 -4.31012,4.31011 -11.29595,4.31011 -15.60606,0 -4.31011,-4.31012 -4.31011,-11.29595 0,-15.6060602 4.31011,-4.31011 11.29594,-4.31011 15.60606,0 z"
       id="path334-3"
       style="stroke-width:0.0689618" /></g></svg>
