<?xml version="1.0" encoding="UTF-8" standalone="no"?>
<!-- Created with Inkscape (http://www.inkscape.org/) -->

<svg
   width="32"
   height="32"
   viewBox="0 0 32 32"
   version="1.1"
   id="svg5"
   xml:space="preserve"
   inkscape:version="1.2.2 (b0a8486541, 2022-12-01, custom)"
   sodipodi:docname="Sound_On.svg"
   inkscape:export-filename="../e1af8a83/Sound_On.png"
   inkscape:export-xdpi="96"
   inkscape:export-ydpi="96"
   xmlns:inkscape="http://www.inkscape.org/namespaces/inkscape"
   xmlns:sodipodi="http://sodipodi.sourceforge.net/DTD/sodipodi-0.dtd"
   xmlns="http://www.w3.org/2000/svg"
   xmlns:svg="http://www.w3.org/2000/svg"><sodipodi:namedview
     id="namedview7"
     pagecolor="#505050"
     bordercolor="#eeeeee"
     borderopacity="1"
     inkscape:showpageshadow="0"
     inkscape:pageopacity="0"
     inkscape:pagecheckerboard="0"
     inkscape:deskcolor="#505050"
     inkscape:document-units="px"
     showgrid="true"
     showguides="true"
     inkscape:zoom="16.192521"
     inkscape:cx="4.1685912"
     inkscape:cy="16.149431"
     inkscape:window-width="1679"
     inkscape:window-height="752"
     inkscape:window-x="134"
     inkscape:window-y="180"
     inkscape:window-maximized="0"
     inkscape:current-layer="layer1"><inkscape:grid
       type="xygrid"
       id="grid19649" /></sodipodi:namedview><defs
     id="defs2" /><g
     inkscape:label="Calque 1"
     inkscape:groupmode="layer"
     id="layer1"><path
       d="m 26.68,4.8264556 c 3.245,2.64 5.32,6.6650004 5.32,11.1749994 0,4.51 -2.075,8.54 -5.32,11.175 -0.515,0.42 -1.27,0.34 -1.69,-0.175 -0.42,-0.515 -0.34,-1.27 0.175,-1.69 2.71,-2.2 4.435,-5.55 4.435,-9.31 0,-3.759999 -1.725,-7.1099994 -4.435,-9.3149994 -0.515,-0.42 -0.59,-1.175 -0.175,-1.69 0.415,-0.515 1.175,-0.59 1.69,-0.175 z m -3.025,3.725 c 2.16,1.7600004 3.545,4.4450004 3.545,7.4499994 0,3.005 -1.385,5.69 -3.545,7.45 -0.515,0.42 -1.27,0.34 -1.69,-0.175 -0.42,-0.515 -0.34,-1.27 0.175,-1.69 1.625,-1.32 2.66,-3.33 2.66,-5.585 0,-2.254999 -1.035,-4.264999 -2.66,-5.589999 -0.515,-0.4200004 -0.59,-1.1750004 -0.175,-1.6900004 0.415,-0.515 1.175,-0.59 1.69,-0.175 z M 20.63,12.276456 c 1.075,0.88 1.77,2.22 1.77,3.724999 0,1.505 -0.695,2.845 -1.77,3.725 -0.515,0.42 -1.27,0.34 -1.69,-0.175 -0.42,-0.515 -0.34,-1.27 0.175,-1.69 0.54,-0.44 0.885,-1.11 0.885,-1.86 0,-0.75 -0.345,-1.42 -0.885,-1.864999 -0.515,-0.42 -0.59,-1.175 -0.175,-1.69 0.415,-0.515 1.175,-0.59 1.69,-0.175 z M 15.055,4.9414556 c 0.575,0.26 0.945,0.83 0.945,1.46 V 25.601455 c 0,0.63 -0.37,1.2 -0.945,1.46 -0.575,0.26 -1.25,0.155 -1.72,-0.265 l -6.745,-5.995 H 3.2 c -1.765,0 -3.2,-1.435 -3.2,-3.2 v -3.199999 c 0,-1.765 1.435,-3.2 3.2,-3.2 h 3.39 l 6.745,-5.9950004 c 0.47,-0.42 1.145,-0.52 1.72,-0.265 z"
       id="path1487"
       style="stroke-width:0.05" /></g></svg>
