<?xml version="1.0" encoding="UTF-8" standalone="no"?>
<!-- Created with Inkscape (http://www.inkscape.org/) -->

<svg
   width="32"
   height="32"
   viewBox="0 0 32 32"
   version="1.1"
   id="svg5"
   xml:space="preserve"
   inkscape:version="1.2.2 (b0a8486541, 2022-12-01, custom)"
   sodipodi:docname="Sound_Off.svg"
   inkscape:export-filename="../c8722ba5/Sound_Off.png"
   inkscape:export-xdpi="96"
   inkscape:export-ydpi="96"
   xmlns:inkscape="http://www.inkscape.org/namespaces/inkscape"
   xmlns:sodipodi="http://sodipodi.sourceforge.net/DTD/sodipodi-0.dtd"
   xmlns="http://www.w3.org/2000/svg"
   xmlns:svg="http://www.w3.org/2000/svg"><sodipodi:namedview
     id="namedview7"
     pagecolor="#505050"
     bordercolor="#eeeeee"
     borderopacity="1"
     inkscape:showpageshadow="0"
     inkscape:pageopacity="0"
     inkscape:pagecheckerboard="0"
     inkscape:deskcolor="#505050"
     inkscape:document-units="px"
     showgrid="true"
     showguides="true"
     inkscape:zoom="16.192521"
     inkscape:cx="5.4346078"
     inkscape:cy="16.025917"
     inkscape:window-width="1920"
     inkscape:window-height="1016"
     inkscape:window-x="0"
     inkscape:window-y="27"
     inkscape:window-maximized="1"
     inkscape:current-layer="layer1"><inkscape:grid
       type="xygrid"
       id="grid19649" /></sodipodi:namedview><defs
     id="defs2" /><g
     inkscape:label="Calque 1"
     inkscape:groupmode="layer"
     id="layer1"><path
       d="m 16.72923,3.7088201 c 0.63894,0.28891 1.05009,0.9223 1.05009,1.62236 V 26.66637 c 0,0.70006 -0.41115,1.33344 -1.05009,1.62236 -0.63894,0.28891 -1.38901,0.17224 -1.91128,-0.29447 L 7.32286,21.33257 h -3.767 C 1.59458,21.33257 0,19.73799 0,17.77671 v -3.55587 c 0,-1.96128 1.59458,-3.55586 3.55586,-3.55586 h 3.767 l 7.49509,-6.6616899 c 0.52227,-0.46671 1.27234,-0.57783 1.91128,-0.29447 z m 6.88393,7.3450799 3.05582,3.05582 3.05582,-3.05582 c 0.52227,-0.52227 1.36679,-0.52227 1.8835,0 0.51671,0.52227 0.52227,1.36678 0,1.8835 l -3.05582,3.05582 3.05582,3.05582 c 0.52227,0.52227 0.52227,1.36678 0,1.88349 -0.52227,0.51672 -1.36679,0.52227 -1.8835,0 l -3.05582,-3.05582 -3.05582,3.05582 c -0.52227,0.52227 -1.36678,0.52227 -1.8835,0 -0.51671,-0.52226 -0.52226,-1.36678 0,-1.88349 l 3.05582,-3.05582 -3.05582,-3.05582 c -0.52226,-0.52227 -0.52226,-1.36679 0,-1.8835 0.52227,-0.51671 1.36679,-0.52227 1.8835,0 z"
       id="path1264"
       style="stroke-width:0.0555604" /></g></svg>
